<?xml version="1.0" standalone="no"?>
<!DOCTYPE svg PUBLIC "-//W3C//DTD SVG 20010904//EN"
 "http://www.w3.org/TR/2001/REC-SVG-20010904/DTD/svg10.dtd">
<svg version="1.0" xmlns="http://www.w3.org/2000/svg"
 width="747.000000pt" height="1280.000000pt" viewBox="0 0 747.000000 1280.000000"
 preserveAspectRatio="xMidYMid meet">
<metadata>
Created by potrace 1.15, written by Peter Selinger 2001-2017
</metadata>
<g transform="translate(0.000000,1280.000000) scale(0.100000,-0.100000)"
fill="#000000" stroke="none">
<path d="M2035 12793 c-491 -63 -911 -324 -1182 -733 -172 -259 -296 -596
-353 -960 -7 -41 -25 -147 -41 -235 -47 -265 -53 -329 -53 -575 0 -278 20
-443 89 -715 67 -263 148 -480 345 -925 181 -407 187 -432 196 -765 7 -234 0
-378 -41 -845 -34 -373 -32 -435 15 -799 22 -168 42 -320 45 -338 7 -37 16
-33 -132 -59 -51 -9 -91 -20 -88 -25 3 -4 -11 -29 -30 -55 -54 -70 -90 -147
-141 -301 -91 -276 -172 -646 -369 -1688 -125 -659 -178 -917 -246 -1191 l-49
-202 52 -85 c43 -69 57 -85 73 -81 11 3 58 10 105 17 l84 12 37 165 c20 91
151 681 290 1313 139 631 256 1147 260 1147 3 0 283 -133 620 -296 338 -163
647 -312 687 -331 40 -19 75 -39 77 -46 6 -18 34 -509 45 -807 22 -585 50
-2233 50 -2981 l0 -265 91 -73 91 -72 52 10 c28 6 77 13 109 17 l59 6 -6 142
c-4 77 -24 1021 -46 2096 -22 1075 -45 2009 -51 2075 -12 135 -40 302 -70 419
-11 43 -18 80 -15 83 2 2 60 -5 128 -16 354 -57 461 -66 843 -66 390 0 509 9
806 59 107 19 196 32 198 30 2 -2 -96 -353 -219 -779 l-222 -776 38 -90 39
-90 65 6 c36 3 83 8 105 11 l40 5 244 847 c134 466 250 867 257 892 l13 46
368 67 c203 37 526 97 718 132 193 36 361 65 375 65 22 0 477 -133 485 -142 2
-2 29 -421 60 -933 31 -511 82 -1358 114 -1881 32 -523 61 -955 64 -961 4 -6
34 -21 67 -33 33 -12 64 -29 68 -37 7 -12 26 -8 115 23 59 20 107 42 107 48 0
6 -11 148 -25 316 -69 853 -138 1958 -190 3025 -24 488 -48 748 -75 821 -6 16
-22 40 -34 54 -16 17 -25 41 -28 76 -5 49 -4 50 36 78 56 39 113 111 132 170
12 34 15 71 12 126 -11 191 -189 428 -403 537 -256 131 -536 222 -1080 353
-143 34 -375 90 -515 124 -242 58 -260 61 -345 56 -49 -3 -91 -5 -93 -4 -1 1
-20 59 -42 130 -21 71 -93 286 -160 479 -133 383 -188 567 -225 750 -51 257
-58 429 -21 587 64 275 81 436 81 798 0 336 -10 449 -61 730 -99 538 -314
1049 -603 1433 -392 522 -898 817 -1500 877 -100 10 -234 11 -296 3z m2275
-5221 c94 -321 169 -586 166 -590 -3 -3 -173 -18 -377 -33 -1208 -91 -1863
-203 -2330 -398 -141 -59 -307 -172 -367 -250 l-27 -36 -7 40 c-15 76 -21 487
-9 665 16 248 25 761 14 848 -5 39 -6 72 -3 72 4 0 15 -9 26 -21 55 -61 318
-212 479 -276 395 -157 587 -203 847 -203 558 0 1045 267 1356 745 43 65 46
68 53 45 5 -14 85 -288 179 -608z m-2828 -2158 c265 -88 474 -228 609 -410 24
-33 51 -65 60 -71 34 -25 67 -143 93 -330 7 -51 10 -93 7 -93 -3 0 -294 137
-646 304 l-640 305 1 50 c1 27 12 83 24 123 20 67 79 197 101 224 10 12 189
-35 391 -102z m5377 -162 c-4 -2 -22 1 -41 7 -23 6 -26 9 -12 10 12 1 28 8 35
17 12 15 14 14 19 -7 4 -13 3 -25 -1 -27z"/>
</g>
</svg>
