<?xml version="1.0" standalone="no"?>
<!DOCTYPE svg PUBLIC "-//W3C//DTD SVG 20010904//EN"
 "http://www.w3.org/TR/2001/REC-SVG-20010904/DTD/svg10.dtd">
<svg version="1.0" xmlns="http://www.w3.org/2000/svg"
 width="1280.000000pt" height="832.000000pt" viewBox="0 0 1280.000000 832.000000"
 preserveAspectRatio="xMidYMid meet">
<metadata>
Created by potrace 1.15, written by Peter Selinger 2001-2017
</metadata>
<g transform="translate(0.000000,832.000000) scale(0.100000,-0.100000)"
fill="#000000" stroke="none">
<path d="M2870 8056 c-146 -32 -203 -89 -286 -286 -34 -80 -124 -287 -199
-460 -322 -738 -698 -1617 -703 -1640 -2 -14 -11 -32 -19 -41 -23 -27 -591
-1297 -838 -1874 -40 -93 -88 -206 -108 -250 -105 -239 -342 -789 -392 -910
-31 -77 -68 -161 -81 -187 -36 -70 -32 -115 18 -215 47 -92 129 -206 168 -234
23 -17 319 -75 405 -81 17 -1 36 -6 43 -11 14 -11 231 -49 2377 -422 3215
-559 3327 -579 3347 -566 10 6 18 7 18 2 0 -5 15 -11 33 -14 1142 -194 3975
-657 3993 -653 13 4 24 13 24 20 0 14 200 658 510 1641 26 83 119 380 208 660
223 712 360 1138 457 1430 46 138 95 295 110 350 15 55 100 334 190 620 338
1073 383 1223 395 1298 7 44 11 118 8 174 -7 130 -34 200 -102 269 -58 57
-105 76 -226 93 -338 47 -2436 342 -3275 461 -671 95 -2202 310 -4835 679
-831 117 -1164 162 -1178 160 -4 0 -32 -6 -62 -13z"/>
</g>
</svg>
