<?xml version="1.0" standalone="no"?>
<!DOCTYPE svg PUBLIC "-//W3C//DTD SVG 20010904//EN"
 "http://www.w3.org/TR/2001/REC-SVG-20010904/DTD/svg10.dtd">
<svg version="1.0" xmlns="http://www.w3.org/2000/svg"
 width="1280.000000pt" height="1214.000000pt" viewBox="0 0 1280.000000 1214.000000"
 preserveAspectRatio="xMidYMid meet">
<metadata>
Created by potrace 1.15, written by Peter Selinger 2001-2017
</metadata>
<g transform="translate(0.000000,1214.000000) scale(0.100000,-0.100000)"
fill="#000000" stroke="none">
<path d="M4053 12125 c-125 -35 -239 -113 -379 -257 -124 -128 -181 -213 -228
-339 -22 -57 -41 -106 -42 -108 -2 -2 -40 10 -84 28 -103 41 -243 77 -345 90
-154 20 -462 33 -670 29 -289 -6 -647 -56 -881 -124 l-85 -24 -52 45 c-164
143 -465 218 -692 171 -134 -28 -209 -54 -276 -97 -62 -40 -268 -238 -302
-290 -16 -24 -16 -61 13 -630 30 -607 65 -1325 120 -2449 16 -333 34 -697 40
-810 6 -113 24 -477 40 -810 16 -333 43 -884 60 -1225 17 -341 44 -892 60
-1225 44 -896 50 -1020 64 -1301 7 -141 16 -261 20 -267 3 -6 40 -29 81 -52
41 -23 75 -42 76 -43 0 -1 13 -263 29 -582 28 -557 29 -580 49 -597 12 -9 81
-59 154 -112 l134 -96 129 52 c71 28 133 54 137 58 4 4 32 195 62 425 30 230
57 420 59 423 3 2 336 -181 740 -408 703 -394 736 -414 741 -444 2 -17 23
-236 45 -486 23 -250 43 -464 45 -475 3 -14 54 -48 158 -107 l154 -88 154 41
c85 23 157 44 161 48 4 4 36 143 70 309 34 166 66 302 71 302 4 0 44 -21 87
-46 56 -32 80 -52 80 -65 0 -39 -110 -84 1665 681 501 216 1097 473 1325 571
228 98 420 179 427 179 10 0 13 -64 13 -307 l0 -307 60 -59 c34 -33 85 -70
116 -84 122 -56 417 -69 539 -25 130 48 304 173 331 239 33 77 15 154 -51 220
-41 41 -65 55 -111 68 -33 10 -63 21 -67 25 -11 10 8 102 41 200 34 104 137
305 239 468 l14 23 34 -21 35 -21 97 19 c54 11 100 19 102 17 1 -2 -5 -49 -14
-105 -24 -144 -23 -254 3 -313 l21 -47 -30 -21 c-16 -11 -36 -34 -44 -50 -14
-26 -14 -30 4 -48 29 -29 93 -35 341 -28 158 4 268 13 370 29 125 19 182 22
415 22 157 -1 355 -8 472 -18 248 -20 367 -20 458 -1 178 38 375 197 375 304
0 65 -110 156 -315 258 -150 76 -185 88 -365 124 -211 43 -267 63 -345 126
-40 32 -76 53 -91 53 -45 0 -192 -120 -230 -188 -3 -6 -167 38 -208 57 -24 10
-62 35 -84 56 l-41 36 45 55 c43 54 150 209 172 250 10 19 -21 80 -253 503
-326 593 -286 512 -394 791 -83 217 -120 348 -109 394 2 9 59 -39 148 -125 87
-84 213 -191 315 -268 357 -267 736 -531 848 -590 55 -29 60 -30 87 -16 41 21
135 131 212 248 37 56 73 111 81 121 13 18 18 15 91 -55 56 -52 88 -93 112
-141 19 -37 47 -82 64 -101 l29 -34 -24 -23 c-27 -25 -33 -77 -15 -124 24 -63
152 -88 243 -48 27 12 141 97 253 189 306 250 410 324 555 399 160 83 236 135
471 330 233 192 361 340 451 519 73 146 82 210 41 293 -44 88 -186 200 -225
176 -4 -2 -77 -8 -161 -13 -174 -10 -192 -16 -318 -99 -61 -40 -138 -110 -270
-244 l-185 -187 -125 -31 c-69 -17 -154 -40 -189 -51 -49 -15 -93 -19 -195
-19 -129 0 -365 20 -441 38 -28 6 -341 215 -1010 672 -533 364 -984 673 -1001
686 l-31 23 5 126 c5 140 -10 280 -40 361 -59 163 -252 334 -437 388 -58 17
-166 20 -288 7 -40 -4 -73 -4 -73 -1 0 3 27 32 60 65 52 52 60 64 60 97 0 32
4 40 25 48 14 5 25 15 25 22 0 7 77 193 171 413 262 614 438 1032 444 1058 8
32 -44 78 -122 107 -248 93 -1416 499 -1667 579 -93 30 -100 31 -117 15 -11
-10 -36 -69 -57 -133 l-37 -116 -6 270 c-7 300 -12 328 -88 504 -104 242 -278
430 -425 461 -65 13 -189 -4 -561 -79 -137 -28 -253 -51 -256 -51 -4 0 -9 16
-11 36 -3 28 1 42 21 63 21 23 25 36 22 78 l-2 51 71 4 c82 4 93 14 84 73 -8
54 -53 197 -67 214 -9 10 -5 19 15 36 l27 23 -5 158 -4 158 36 37 c36 37 37
39 32 102 -4 45 -14 81 -34 117 -33 61 -326 373 -399 426 -171 122 -367 170
-735 180 -145 3 -196 1 -237 -11z"/>
</g>
</svg>
