<?xml version="1.0" standalone="no"?>
<!DOCTYPE svg PUBLIC "-//W3C//DTD SVG 20010904//EN"
 "http://www.w3.org/TR/2001/REC-SVG-20010904/DTD/svg10.dtd">
<svg version="1.0" xmlns="http://www.w3.org/2000/svg"
 width="706.000000pt" height="1280.000000pt" viewBox="0 0 706.000000 1280.000000"
 preserveAspectRatio="xMidYMid meet">
<g transform="translate(0.000000,1280.000000) scale(0.100000,-0.100000)"
fill="#000000" stroke="none">
<path d="M845 12788 c-103 -26 -184 -52 -230 -75 -269 -137 -464 -423 -520
-763 -12 -79 -15 -210 -15 -759 l0 -664 -40 -34 -40 -35 0 -217 0 -218 40 -39
40 -39 0 -203 0 -203 -40 -38 -40 -38 0 -350 0 -350 40 -37 40 -37 0 -134 0
-134 -40 -37 -40 -37 0 -350 0 -350 40 -38 40 -38 0 -3313 c0 -3642 -4 -3399
60 -3590 60 -179 142 -310 270 -431 124 -117 227 -174 386 -214 64 -16 247
-18 2696 -20 l2628 -3 107 25 c59 14 139 41 177 59 289 139 496 465 536 841 6
55 10 1576 10 3932 l0 3843 28 6 c15 4 39 18 55 32 l27 26 0 347 0 347 -25 31
c-15 16 -38 31 -53 33 l-27 3 -5 1195 -6 1195 -26 105 c-28 115 -51 177 -99
272 -108 214 -292 386 -486 453 -168 59 19 55 -2833 54 -1676 -1 -2629 -5
-2655 -11z m2724 -262 c32 -17 51 -54 51 -100 0 -70 -77 -120 -142 -93 -63 27
-89 82 -64 141 26 62 92 84 155 52z m-1364 -402 c45 -21 68 -59 68 -110 0
-148 -211 -164 -239 -18 -9 47 21 104 66 126 43 22 63 22 105 2z m2054 -85
c16 -29 10 -69 -15 -93 -14 -14 -92 -16 -712 -16 -383 0 -702 4 -708 8 -16 10
-34 48 -34 69 0 10 7 29 16 41 l15 22 712 -2 711 -3 15 -26z m2541 -5639 l0
-4970 -3284 0 c-2985 0 -3284 1 -3290 16 -8 22 -8 9909 1 9917 3 4 1484 7
3290 7 l3283 0 0 -4970z m-3150 -5207 c127 -34 249 -132 312 -249 100 -185 71
-419 -72 -577 -214 -239 -602 -219 -786 39 -65 91 -96 187 -97 294 -1 345 311
584 643 493z"/>
</g>
</svg>
